<?xml version="1.0" standalone="no"?><!DOCTYPE svg PUBLIC "-//W3C//DTD SVG 1.1//EN" "http://www.w3.org/Graphics/SVG/1.1/DTD/svg11.dtd"><svg class="icon" width="200px" height="200.00px" viewBox="0 0 1024 1024" version="1.1" xmlns="http://www.w3.org/2000/svg"><path fill="#dbdbdb" d="M921.110143 864.414375h-817.335126c-8.679683 0.062422-17.074887-3.337002-23.575952-9.54847-6.128581-5.810333-9.6815-14.160511-9.773597-22.967084v-100.08958c-0.049119-73.197092 60.95221-132.60411 135.903249-132.60411h612.178607c74.951039 0 135.952368 59.512419 135.952368 132.60411v100.08958c-0.092098 8.806573-3.645017 17.156752-9.773597 22.967084-6.500041 6.211469-14.896268 9.611915-23.575952 9.54847z m-784.033673-65.082274h750.734266v-67.468624c0-37.288255-31.090089-67.575048-69.25327-67.575049H206.280622c-38.2123 0-69.25327 30.286794-69.253271 67.575049v67.468624h0.049119zM595.493088 640.344087l-0.143263-34.525328c-2.333138-51.813063 0.475837-153.080467 47.461965-237.110279 18.328437-32.707936 26.801413-61.241806 26.801412-89.873914 0-83.145675-61.315484-150.821007-136.721894-150.821007s-136.721895 67.675332-136.721895 150.821007c0 28.730345 8.711406 58.050114 26.659173 89.726558 47.795563 84.029812 50.604538 185.396477 48.224328 237.208516l0.095168 34.034141s-5.14109 15.765055-24.945136 15.765055c-19.851117 0-31.371498-3.781116-31.371498-20.135596 0-1.473561 0.095167-2.996241 0.333598-4.468778 0.143263-1.326205 17.375739-133.779889-37.798884-230.971465-23.469528-41.351803-34.894741-81.033571-34.894742-121.158431 0-115.755374 85.404112-210.04997 190.420911-210.04997s190.420911 94.245478 190.420911 210.04997c0 39.534412-11.425214 79.069847-34.799574 120.961956-50.794873 90.856287-39.559994 211.425294-37.60855 229.055836a33.114189 33.114189 0 0 1 0.666173 6.580882c0 16.305361-11.901051 22.689768-33.085536 22.689769-21.231557 0-22.992667-17.778922-22.992667-17.778922z m241.45319 312.448128H275.824511c-9.686616 0.258896-18.901489-4.311189-24.7548-12.277628-5.116531-7.334036-5.116531-17.22122 0-24.556279 5.853311-7.966439 15.068184-12.536524 24.7548-12.277628h561.073672c10.330276-0.147356 19.99438 4.468778 25.230638 12.130272 5.236258 7.661494 5.236258 17.188474 0 24.849968-6.002714 8.02886-15.410991 12.551874-25.230638 12.130272h0.048095z" /></svg>