<?xml version="1.0" standalone="no"?><!DOCTYPE svg PUBLIC "-//W3C//DTD SVG 1.1//EN" "http://www.w3.org/Graphics/SVG/1.1/DTD/svg11.dtd"><svg class="icon" width="200px" height="200.00px" viewBox="0 0 1024 1024" version="1.1" xmlns="http://www.w3.org/2000/svg"><path fill="#dbdbdb" d="M682.812829 317.404l36.427654-36.515658-36.427654-36.511565-36.432771 36.511565L682.812829 317.404zM117.795335 484.328777c0-203.558116 165.036777-368.589776 368.612289-368.589776 201.292516 0 364.886431 161.344688 368.539634 361.742834 18.628266 10.515494 35.94363 23.091928 51.617611 37.423331 0.729617-10.091846 1.105171-20.293185 1.105171-30.572296 0-232.660944-188.602496-421.263439-421.263439-421.263439-232.656851 0-421.261393 188.605565-421.261393 421.263439 0 232.655827 188.604542 421.2573 421.261393 421.2573 5.713119 0 11.397584-0.112564 17.064654-0.340761-13.820774-16.114003-25.831318-33.812083-35.751249-52.78111C272.826224 842.736657 117.795335 681.642678 117.795335 484.328777L117.795335 484.328777zM512.739339 484.951971 512.739339 194.709587c0-14.540158-11.790534-26.335808-26.328645-26.335808-14.548344 0-26.334785 11.794627-26.334785 26.335808l0 263.908622-210.637348 0c-14.538111 0-26.315342 11.795651-26.315342 26.333762 0 14.544251 11.777231 26.338878 26.315342 26.338878L486.411717 511.290849C500.948805 511.288802 512.739339 499.491105 512.739339 484.951971L512.739339 484.951971zM320.337307 282.193057l-37.234019-37.226856-37.240159 37.226856 37.240159 37.246299L320.337307 282.193057zM278.853497 700.735525l36.427654-36.519752-36.427654-36.539194-36.427654 36.539194L278.853497 700.735525zM716.962603 484.98267c-131.123386 0-237.433644 106.307188-237.433644 237.434667 0 131.111107 106.306164 237.426481 237.433644 237.426481 131.12441 0 237.430574-106.315374 237.430574-237.426481C954.393177 591.299067 848.08599 484.98267 716.962603 484.98267L716.962603 484.98267zM716.962603 909.511479c-103.32732 0-187.107445-83.778078-187.107445-187.094142 0-103.323227 83.780125-187.094142 187.107445-187.094142 103.317087 0 187.092096 83.770915 187.092096 187.094142C904.054699 825.733401 820.27969 909.511479 716.962603 909.511479L716.962603 909.511479zM703.385377 748.676397 735.095589 748.676397l0-0.385786 103.07354 0 0-51.903114-42.859134 0L735.095589 696.387497l-31.710212 0-30.67872 0-72.393797 0 0 51.903114 103.07354 0L703.3864 748.676397z" /></svg>